<svg xmlns="http://www.w3.org/2000/svg" width="52.906" height="49" viewBox="0 0 52.906 49">
  <defs>
    <style>
      .cls-1 {
        fill-rule: evenodd;
      }
    </style>
  </defs>
  <path id="Shopping_cart" data-name="Shopping cart" class="cls-1" d="M233.186,1045.68a4.655,4.655,0,1,0,4.653,4.65A4.66,4.66,0,0,0,233.186,1045.68Zm0,6.71a2.055,2.055,0,1,1,2.055-2.06A2.057,2.057,0,0,1,233.186,1052.39Zm16.321-6.71a4.655,4.655,0,1,0,4.653,4.65A4.659,4.659,0,0,0,249.507,1045.68Zm0,6.71a2.055,2.055,0,1,1,2.055-2.06A2.057,2.057,0,0,1,249.507,1052.39Zm1.146-31.22H232.037a1.3,1.3,0,1,0,0,2.59h18.616A1.3,1.3,0,1,0,250.653,1021.17Zm-1.013,6.74H233.05a1.3,1.3,0,0,0,0,2.6h16.59A1.3,1.3,0,0,0,249.64,1027.91Zm13.685-12.54a2.608,2.608,0,0,0-2.014-.95H220.846l-0.817-3.97a2.585,2.585,0,0,0-1.51-1.86l-5.7-2.48a1.3,1.3,0,0,0-1.034,2.39l5.7,2.47,6.286,30.53a2.607,2.607,0,0,0,2.545,2.07h31.122a1.3,1.3,0,1,0,0-2.59H226.315l-0.765-3.72h32.127a2.607,2.607,0,0,0,2.545-2.07l3.633-17.65A2.6,2.6,0,0,0,263.325,1015.37Zm-5.648,19.29H225.015l-3.633-17.64h39.929Z" transform="translate(-211 -1006)"/>
</svg>
